<svg width="32" height="32" viewBox="0 0 128 128" fill="none" xmlns="http://www.w3.org/2000/svg">
    <rect width="128" height="128" rx="64" fill="#AB9FF2"/>
    <path d="M110.584 64.9142C110.584 89.5153 90.5153 109.584 65.9142 109.584C41.3131 109.584 21.2444 89.5153 21.2444 64.9142C21.2444 40.3131 41.3131 20.2444 65.9142 20.2444C90.5153 20.2444 110.584 40.3131 110.584 64.9142Z" fill="#ffffff"/>
    <path d="M65.9142 109.584C90.5153 109.584 110.584 89.5153 110.584 64.9142C110.584 40.3131 90.5153 20.2444 65.9142 20.2444C41.3131 20.2444 21.2444 40.3131 21.2444 64.9142C21.2444 89.5153 41.3131 109.584 65.9142 109.584ZM65.9142 109.584C65.9142 109.584 89.5153 109.584 89.5153 89.5153C89.5153 69.4466 65.9142 69.4466 65.9142 69.4466C65.9142 69.4466 42.3131 69.4466 42.3131 89.5153C42.3131 109.584 65.9142 109.584 65.9142 109.584Z" stroke="#AB9FF2" stroke-width="2"/>
</svg>
