<svg width="32" height="32" viewBox="0 0 32 32" fill="none" xmlns="http://www.w3.org/2000/svg">
    <path d="M16 0C7.163 0 0 7.163 0 16C0 24.837 7.163 32 16 32C24.837 32 32 24.837 32 16C32 7.163 24.837 0 16 0Z" fill="#FC9D0F"/>
    <path d="M23.5 16.5L19 14L16 8L13 14L8.5 16.5L16 24L23.5 16.5Z" fill="white"/>
    <path d="M19 14L16 8L13 14L16 16L19 14Z" fill="#FED18D"/>
    <path d="M16 24L23.5 16.5L19 14L16 16L16 24Z" fill="#FEB751"/>
    <path d="M8.5 16.5L16 24V16L13 14L8.5 16.5Z" fill="#FEB751"/>
</svg>
